<?xml version="1.0" encoding="UTF-8" standalone="no"?>
<!-- Created with Inkscape (http://www.inkscape.org/) -->

<svg
   xmlns:dc="http://purl.org/dc/elements/1.1/"
   xmlns:cc="http://creativecommons.org/ns#"
   xmlns:rdf="http://www.w3.org/1999/02/22-rdf-syntax-ns#"
   xmlns:svg="http://www.w3.org/2000/svg"
   xmlns="http://www.w3.org/2000/svg"
   xmlns:sodipodi="http://sodipodi.sourceforge.net/DTD/sodipodi-0.dtd"
   xmlns:inkscape="http://www.inkscape.org/namespaces/inkscape"
   width="300"
   height="74"
   viewBox="0 0 300 74.000001"
   id="svg2"
   version="1.1"
   inkscape:version="0.91 r13725"
   sodipodi:docname="clear.svg">
  <defs
     id="defs4" />
  <sodipodi:namedview
     id="base"
     pagecolor="#ffffff"
     bordercolor="#666666"
     borderopacity="1.0"
     inkscape:pageopacity="0.0"
     inkscape:pageshadow="2"
     inkscape:zoom="0.98994949"
     inkscape:cx="73.564903"
     inkscape:cy="51.572148"
     inkscape:document-units="px"
     inkscape:current-layer="flowRoot4148"
     showgrid="false"
     units="px"
     inkscape:window-width="1920"
     inkscape:window-height="1178"
     inkscape:window-x="-8"
     inkscape:window-y="-8"
     inkscape:window-maximized="1" />
  <metadata
     id="metadata7">
    <rdf:RDF>
      <cc:Work
         rdf:about="">
        <dc:format>image/svg+xml</dc:format>
        <dc:type
           rdf:resource="http://purl.org/dc/dcmitype/StillImage" />
        <dc:title></dc:title>
      </cc:Work>
    </rdf:RDF>
  </metadata>
  <g
     inkscape:label="レイヤー 1"
     inkscape:groupmode="layer"
     id="layer1"
     transform="translate(0,-978.36216)">
    <g
       transform="translate(-32.680664,697.84878)"
       style="font-style:normal;font-variant:normal;font-weight:normal;font-stretch:normal;font-size:40px;line-height:125%;font-family:Meiryo;-inkscape-font-specification:'Meiryo, Normal';text-align:start;letter-spacing:0px;word-spacing:0px;writing-mode:lr-tb;text-anchor:start;fill:#000000;fill-opacity:1;stroke:none;stroke-width:1px;stroke-linecap:butt;stroke-linejoin:miter;stroke-opacity:1"
       id="flowRoot4148">
      <path
         d="m 98.602539,312.61202 q -2.416992,-0.74707 -6.196289,-0.74707 -7.03125,0 -11.425781,3.6914 -4.965821,4.13086 -4.965821,11.90918 0,6.06445 3.911133,9.97559 3.955078,3.86718 10.327149,3.86718 4.350586,0 8.261718,-2.15332 -0.439453,1.80176 -1.49414,6.63575 -0.615235,3.208 -1.186524,6.67968 -4.921875,1.88965 -12.612304,1.88965 -13.930664,0 -23.81836,-9.36035 -10.722656,-10.19531 -10.722656,-26.54297 0,-15.11719 9.228516,-24.43359 9.84375,-9.93164 27.202148,-9.93164 8.349609,0 12.084961,0.96679 l 1.40625,27.55372 z"
         style="font-style:normal;font-variant:normal;font-weight:normal;font-stretch:normal;font-size:90px;font-family:'Showcard Gothic';-inkscape-font-specification:'Showcard Gothic';fill:#00631a;fill-opacity:1"
         id="path4700" />
      <path
         d="m 147.99707,339.15498 q -0.43945,1.75782 -1.62598,6.63575 -0.61523,2.85644 -1.05468,6.67968 l -39.77051,0 q -0.21973,-10.32714 -1.09863,-34.01367 -0.57129,-12.1289 -2.06543,-33.48633 l 30.49804,0 -2.50488,55.98633 q 4.2627,0 12.78809,-0.92285 1.75781,-0.17578 4.83398,-0.87891 z"
         style="font-style:normal;font-variant:normal;font-weight:normal;font-stretch:normal;font-size:90px;font-family:'Showcard Gothic';-inkscape-font-specification:'Showcard Gothic';fill:#00631a;fill-opacity:1"
         id="path4702" />
      <path
         d="m 196.20508,284.97041 -1.88965,27.81739 q -1.62598,-0.26367 -7.03125,-0.92285 -3.69141,-0.35157 -8.08594,-0.43946 l -0.65918,8.39356 q 4.83399,0.13183 15.77637,-0.21973 -0.4834,1.62598 -1.53809,6.06445 -0.61523,2.68067 -1.09863,6.19629 -1.27441,-0.30761 -6.37207,-0.79101 -2.37305,-0.13184 -7.03125,-0.0879 l -0.43945,9.7998 q 3.2959,-0.0439 12.1289,-0.57129 1.66993,-0.13183 5.49317,-1.05469 -0.35156,1.36231 -1.62598,6.54786 -0.61523,2.68066 -1.49414,6.76757 l -39.33105,0 -1.27442,-34.45312 q -0.35156,-11.82129 -1.71387,-33.04688 l 46.18653,0 z"
         style="font-style:normal;font-variant:normal;font-weight:normal;font-stretch:normal;font-size:90px;font-family:'Showcard Gothic';-inkscape-font-specification:'Showcard Gothic';fill:#00631a;fill-opacity:1"
         id="path4704" />
      <path
         d="m 253.68555,352.47041 -24.03809,0 -1.62598,-5.84472 q -1.01074,0.39551 -5.05371,2.68066 -2.59277,1.66992 -5.75683,4.43848 l -2.50489,-5.31738 q -0.74707,-1.58204 -2.15332,-4.43848 l -2.37304,8.48144 -12.74414,0 q 2.8125,-10.85449 8.70117,-35.81543 3.60351,-16.69921 6.02051,-31.68457 l 26.41113,0 q 1.23047,6.89942 6.72363,32.12403 3.03223,13.18359 8.39356,35.37597 z m -27.7295,-14.41406 q -0.74707,-2.3291 -2.63671,-7.55859 -1.14258,-2.90039 -3.47168,-7.99805 -1.01075,2.54883 -3.16407,8.34961 -1.18652,3.33984 -2.8125,9.09668 1.31836,0 5.97657,-0.52734 2.8125,-0.39551 6.10839,-1.36231 z"
         style="font-style:normal;font-variant:normal;font-weight:normal;font-stretch:normal;font-size:90px;font-family:'Showcard Gothic';-inkscape-font-specification:'Showcard Gothic';fill:#00631a;fill-opacity:1"
         id="path4706" />
      <path
         d="m 314.33008,310.23897 q 0,8.08594 -4.52637,14.32617 -3.99902,5.44922 -10.01953,7.82227 1.27441,1.97754 6.28418,8.30566 2.50488,2.90039 7.64648,7.64648 -2.06543,0.74708 -9.09668,3.7793 -4.92187,2.24121 -9.27246,4.39453 -1.27441,-1.58203 -5.66894,-8.17383 -2.02149,-3.33984 -5.93262,-11.25 l -0.0879,0 -0.43945,15.38086 -24.74121,0 q -0.4834,-9.58007 -1.36231,-31.59668 -0.39551,-12.96386 -1.80176,-35.90332 12.08496,-1.27441 22.06055,-1.27441 36.95801,0 36.95801,26.54297 z m -19.95117,9.49219 q 0,-4.17481 -3.51563,-5.97657 -2.59277,-1.31836 -6.50391,-1.14257 l -0.26367,15.02929 q 3.64746,0 6.50391,-1.62597 3.7793,-2.10938 3.7793,-6.28418 z"
         style="font-style:normal;font-variant:normal;font-weight:normal;font-stretch:normal;font-size:90px;font-family:'Showcard Gothic';-inkscape-font-specification:'Showcard Gothic';fill:#00631a;fill-opacity:1"
         id="path4708" />
    </g>
  </g>
</svg>
