<?xml version="1.0" encoding="UTF-8" standalone="no"?>
<!-- Created with Inkscape (http://www.inkscape.org/) -->

<svg
   xmlns:dc="http://purl.org/dc/elements/1.1/"
   xmlns:cc="http://creativecommons.org/ns#"
   xmlns:rdf="http://www.w3.org/1999/02/22-rdf-syntax-ns#"
   xmlns:svg="http://www.w3.org/2000/svg"
   xmlns="http://www.w3.org/2000/svg"
   xmlns:sodipodi="http://sodipodi.sourceforge.net/DTD/sodipodi-0.dtd"
   xmlns:inkscape="http://www.inkscape.org/namespaces/inkscape"
   width="720"
   height="520"
   viewBox="0 0 720.00001 520.00001"
   id="svg2"
   version="1.1"
   inkscape:version="0.91 r13725"
   sodipodi:docname="title.svg">
  <defs
     id="defs4" />
  <sodipodi:namedview
     id="base"
     pagecolor="#ffffff"
     bordercolor="#666666"
     borderopacity="1.0"
     inkscape:pageopacity="0.0"
     inkscape:pageshadow="2"
     inkscape:zoom="0.7"
     inkscape:cx="58.55411"
     inkscape:cy="188.48433"
     inkscape:document-units="px"
     inkscape:current-layer="flowRoot4148"
     showgrid="false"
     units="px"
     inkscape:window-width="1920"
     inkscape:window-height="1178"
     inkscape:window-x="-8"
     inkscape:window-y="-8"
     inkscape:window-maximized="1" />
  <metadata
     id="metadata7">
    <rdf:RDF>
      <cc:Work
         rdf:about="">
        <dc:format>image/svg+xml</dc:format>
        <dc:type
           rdf:resource="http://purl.org/dc/dcmitype/StillImage" />
        <dc:title />
      </cc:Work>
    </rdf:RDF>
  </metadata>
  <g
     inkscape:label="レイヤー 1"
     inkscape:groupmode="layer"
     id="layer1"
     transform="translate(0,-532.36216)">
    <g
       transform="translate(3.428571,471.50502)"
       style="font-style:normal;font-variant:normal;font-weight:normal;font-stretch:normal;font-size:40px;line-height:125%;font-family:Meiryo;-inkscape-font-specification:'Meiryo, Normal';text-align:start;letter-spacing:0px;word-spacing:0px;writing-mode:lr-tb;text-anchor:start;fill:#000000;fill-opacity:1;stroke:none;stroke-width:1px;stroke-linecap:butt;stroke-linejoin:miter;stroke-opacity:1"
       id="flowRoot4148">
      <path
         d="m 94.55957,339.15498 q -0.439453,1.75782 -1.625976,6.63575 -0.615235,2.85644 -1.054688,6.67968 l -39.770508,0 q -0.219726,-10.32714 -1.098632,-34.01367 -0.571289,-12.1289 -2.06543,-33.48633 l 30.498047,0 -2.504883,55.98633 q 4.262695,0 12.788086,-0.92285 1.757812,-0.17578 4.833984,-0.87891 z"
         style="font-style:normal;font-variant:normal;font-weight:normal;font-stretch:normal;font-size:90px;font-family:'Showcard Gothic';-inkscape-font-specification:'Showcard Gothic';stroke:none;fill:#00631a;fill-opacity:1"
         id="path4712" />
      <path
         d="m 150.32617,352.47041 -24.03808,0 -1.62598,-5.84472 q -1.01074,0.39551 -5.05371,2.68066 -2.59277,1.66992 -5.75684,4.43848 l -2.50488,-5.31738 q -0.74707,-1.58204 -2.15332,-4.43848 l -2.37305,8.48144 -12.744138,0 q 2.8125,-10.85449 8.701168,-35.81543 3.60352,-16.69921 6.02051,-31.68457 l 26.41113,0 q 1.23047,6.89942 6.72364,32.12403 3.03222,13.18359 8.39355,35.37597 z m -27.72949,-14.41406 q -0.74707,-2.3291 -2.63672,-7.55859 -1.14258,-2.90039 -3.47168,-7.99805 -1.01074,2.54883 -3.16406,8.34961 -1.18652,3.33984 -2.8125,9.09668 1.31836,0 5.97656,-0.52734 2.8125,-0.39551 6.1084,-1.36231 z"
         style="font-style:normal;font-variant:normal;font-weight:normal;font-stretch:normal;font-size:90px;font-family:'Showcard Gothic';-inkscape-font-specification:'Showcard Gothic';stroke:none;fill:#00631a;fill-opacity:1"
         id="path4714" />
      <path
         d="m 212.77246,284.97041 -8.26172,15.29297 q -3.33984,6.28418 -9.00879,17.57813 -0.52734,6.15234 -1.3623,17.44629 -0.26367,6.0205 -0.87891,17.18261 l -22.5,0 q -0.17578,-5.44921 -0.79101,-17.44628 -0.35157,-4.52637 -1.62598,-17.18262 -2.28516,-4.70215 -7.64648,-15.24903 -3.47168,-6.41601 -10.10743,-17.62207 l 32.43164,0 q 0.79102,2.85645 2.76856,9.00879 l 4.21875,11.86524 q 1.66992,-4.04297 4.52637,-11.95313 0.96679,-3.12011 2.50488,-8.9209 l 15.73242,0 z"
         style="font-style:normal;font-variant:normal;font-weight:normal;font-stretch:normal;font-size:90px;font-family:'Showcard Gothic';-inkscape-font-specification:'Showcard Gothic';stroke:none;fill:#00631a;fill-opacity:1"
         id="path4716" />
      <path
         d="m 261.24414,284.97041 -1.88965,27.81739 q -1.62597,-0.26367 -7.03125,-0.92285 -3.6914,-0.35157 -8.08594,-0.43946 l -0.65918,8.39356 q 4.83399,0.13183 15.77637,-0.21973 -0.4834,1.62598 -1.53808,6.06445 -0.61524,2.68067 -1.09864,6.19629 -1.27441,-0.30761 -6.37207,-0.79101 -2.37304,-0.13184 -7.03125,-0.0879 l -0.43945,9.7998 q 3.2959,-0.0439 12.12891,-0.57129 1.66992,-0.13183 5.49316,-1.05469 -0.35156,1.36231 -1.62598,6.54786 -0.61523,2.68066 -1.49414,6.76757 l -39.33105,0 -1.27442,-34.45312 q -0.35156,-11.82129 -1.71386,-33.04688 l 46.18652,0 z"
         style="font-style:normal;font-variant:normal;font-weight:normal;font-stretch:normal;font-size:90px;font-family:'Showcard Gothic';-inkscape-font-specification:'Showcard Gothic';stroke:none;fill:#00631a;fill-opacity:1"
         id="path4718" />
      <path
         d="m 323.99805,310.23897 q 0,8.08594 -4.52637,14.32617 -3.99902,5.44922 -10.01953,7.82227 1.27441,1.97754 6.28418,8.30566 2.50488,2.90039 7.64648,7.64648 -2.06543,0.74708 -9.09668,3.7793 -4.92187,2.24121 -9.27246,4.39453 -1.27441,-1.58203 -5.66894,-8.17383 -2.02149,-3.33984 -5.93262,-11.25 l -0.0879,0 -0.43945,15.38086 -24.74122,0 q -0.48339,-9.58007 -1.3623,-31.59668 -0.39551,-12.96386 -1.80176,-35.90332 12.08496,-1.27441 22.06055,-1.27441 36.95801,0 36.95801,26.54297 z m -19.95118,9.49219 q 0,-4.17481 -3.51562,-5.97657 -2.59277,-1.31836 -6.50391,-1.14257 l -0.26367,15.02929 q 3.64746,0 6.50391,-1.62597 3.77929,-2.10938 3.77929,-6.28418 z"
         style="font-style:normal;font-variant:normal;font-weight:normal;font-stretch:normal;font-size:90px;font-family:'Showcard Gothic';-inkscape-font-specification:'Showcard Gothic';stroke:none;fill:#00631a;fill-opacity:1"
         id="path4720" />
      <path
         d="m 372.68945,284.97041 -1.88965,27.81739 q -1.62597,-0.26367 -7.03125,-0.92285 -3.6914,-0.35157 -8.08593,-0.43946 l -0.65918,8.39356 q 4.83398,0.13183 15.77636,-0.21973 -0.48339,1.62598 -1.53808,6.06445 -0.61524,2.68067 -1.09863,6.19629 -1.27442,-0.30761 -6.37207,-0.79101 -2.37305,-0.13184 -7.03125,-0.0879 l -0.43946,9.7998 q 3.2959,-0.0439 12.12891,-0.57129 1.66992,-0.13183 5.49316,-1.05469 -0.35156,1.36231 -1.62597,6.54786 -0.61524,2.68066 -1.49414,6.76757 l -39.33106,0 -1.27441,-34.45312 q -0.35157,-11.82129 -1.71387,-33.04688 l 46.18652,0 z"
         style="font-style:normal;font-variant:normal;font-weight:normal;font-stretch:normal;font-size:90px;font-family:'Showcard Gothic';-inkscape-font-specification:'Showcard Gothic';stroke:none;fill:#00631a;fill-opacity:1"
         id="path4722" />
      <path
         d="m 436.4541,319.24776 q 0,15.86426 -9.84375,24.96094 -10.15137,9.44824 -28.6084,9.44824 -11.86523,0 -18.32519,-1.18653 l -1.18653,-32.65136 q -0.57128,-12.56836 -2.06543,-34.67285 9.53614,-1.36231 19.90723,-1.36231 18.50098,0 28.95996,8.61328 11.16211,9.22852 11.16211,26.85059 z m -18.01758,5.40527 q 0,-6.45996 -4.1748,-9.53613 -3.47168,-2.54883 -8.87695,-2.3291 l -0.61524,27.55371 q 5.625,-0.35156 9.18457,-3.64746 4.48242,-4.08692 4.48242,-12.04102 z"
         style="font-style:normal;font-variant:normal;font-weight:normal;font-stretch:normal;font-size:90px;font-family:'Showcard Gothic';-inkscape-font-specification:'Showcard Gothic';stroke:none;fill:#00631a;fill-opacity:1"
         id="path4724" />
      <path
         d="m 510.89746,284.97041 q -0.61523,9.22852 -1.80176,33.66211 -0.61523,15.0293 -0.92285,33.83789 l -15.9082,0 -0.43945,-20.69824 -15.5127,22.32422 -16.74316,-22.14844 -0.43946,20.52246 -15.82031,0 q -0.30762,-10.06347 -1.18652,-34.01367 -0.61524,-13.79883 -2.24121,-33.48633 l 25.18066,0 q 1.31836,3.20801 4.52637,10.3711 2.46093,5.09765 6.72363,12.04101 1.88965,-2.98828 6.94336,-12.34863 1.80176,-3.47168 4.61426,-10.06348 l 23.02734,0 z"
         style="font-style:normal;font-variant:normal;font-weight:normal;font-stretch:normal;font-size:90px;font-family:'Showcard Gothic';-inkscape-font-specification:'Showcard Gothic';stroke:none;fill:#00631a;fill-opacity:1"
         id="path4726" />
      <path
         d="m 568.1582,352.47041 -24.03808,0 -1.62598,-5.84472 q -1.01074,0.39551 -5.05371,2.68066 -2.59277,1.66992 -5.75684,4.43848 l -2.50488,-5.31738 q -0.74707,-1.58204 -2.15332,-4.43848 l -2.37305,8.48144 -12.74414,0 q 2.8125,-10.85449 8.70117,-35.81543 3.60352,-16.69921 6.02051,-31.68457 l 26.41114,0 q 1.23046,6.89942 6.72363,32.12403 3.03222,13.18359 8.39355,35.37597 z m -27.72949,-14.41406 q -0.74707,-2.3291 -2.63672,-7.55859 -1.14258,-2.90039 -3.47168,-7.99805 -1.01074,2.54883 -3.16406,8.34961 -1.18652,3.33984 -2.8125,9.09668 1.31836,0 5.97656,-0.52734 2.8125,-0.39551 6.1084,-1.36231 z"
         style="font-style:normal;font-variant:normal;font-weight:normal;font-stretch:normal;font-size:90px;font-family:'Showcard Gothic';-inkscape-font-specification:'Showcard Gothic';stroke:none;fill:#00631a;fill-opacity:1"
         id="path4728" />
      <path
         d="m 623.79297,284.97041 -24.21387,54.09668 q 3.95508,0.26368 12.52442,-0.61523 1.97753,-0.21973 5.44921,-1.18652 -0.65918,1.97754 -2.24121,6.85546 -0.8789,2.76856 -2.3291,8.34961 l -39.68262,0 11.86524,-41.30859 q -1.58203,0.0879 -6.02051,0.35156 -3.25195,0.21973 -8.9209,1.09864 l -0.96679,-27.64161 54.53613,0 z"
         style="font-style:normal;font-variant:normal;font-weight:normal;font-stretch:normal;font-size:90px;font-family:'Showcard Gothic';-inkscape-font-specification:'Showcard Gothic';stroke:none;fill:#00631a;fill-opacity:1"
         id="path4730" />
      <path
         d="m 672.74805,284.97041 -1.88965,27.81739 q -1.62598,-0.26367 -7.03125,-0.92285 -3.69141,-0.35157 -8.08594,-0.43946 l -0.65918,8.39356 q 4.83399,0.13183 15.77637,-0.21973 -0.4834,1.62598 -1.53809,6.06445 -0.61523,2.68067 -1.09863,6.19629 -1.27441,-0.30761 -6.37207,-0.79101 -2.37305,-0.13184 -7.03125,-0.0879 l -0.43945,9.7998 q 3.29589,-0.0439 12.1289,-0.57129 1.66992,-0.13183 5.49317,-1.05469 -0.35157,1.36231 -1.62598,6.54786 -0.61523,2.68066 -1.49414,6.76757 l -39.33106,0 -1.27441,-34.45312 q -0.35156,-11.82129 -1.71387,-33.04688 l 46.18653,0 z"
         style="font-style:normal;font-variant:normal;font-weight:normal;font-stretch:normal;font-size:90px;font-family:'Showcard Gothic';-inkscape-font-specification:'Showcard Gothic';stroke:none;fill:#00631a;fill-opacity:1"
         id="path4732" />
    </g>
  </g>
</svg>
